<?xml version="1.0" encoding="utf-8"?>
<svg viewBox="305.075 169.625 16.002 16.002" xmlns="http://www.w3.org/2000/svg">
  <path d="M 321.077 177.675 C 321.077 173.229 317.495 169.625 313.077 169.625 C 308.657 169.626 305.075 173.229 305.075 177.676 C 305.075 181.693 308.001 185.023 311.825 185.627 L 311.825 180.002 L 309.795 180.002 L 309.795 177.676 L 311.827 177.676 L 311.827 175.901 C 311.827 173.884 313.022 172.77 314.849 172.77 C 315.725 172.77 316.64 172.927 316.64 172.927 L 316.64 174.907 L 315.631 174.907 C 314.638 174.907 314.328 175.528 314.328 176.165 L 314.328 177.675 L 316.546 177.675 L 316.192 180.001 L 314.327 180.001 L 314.327 185.626 C 318.151 185.022 321.077 181.692 321.077 177.675" transform="matrix(1, 0, 0, 1, 5.684341886080802e-14, 0)" style="fill: rgb(251, 251, 251);"/>
</svg>