<svg version="1.2" xmlns="http://www.w3.org/2000/svg" viewBox="0 0 420 180" width="420" height="180">
	<title>MattBishopDanceLogo</title>
	<style>
		.s0 { fill: #181818 } 
	</style>
	<path id="Faith Hale Photo" class="s0" aria-label="Faith Hale
Photo"  d="m24.5 2.7h-0.2c-2.1 0.2-1.9 2.7-3.5 3.3-3.9 1.5-8.9 0.1-13 1.8-1 0.4-1.6 1.3-1.6 2.2 0 0.8 0.5 1.6 1.6 1.9 0.2 0.1 0.5 0.1 0.8 0.1 1.6 0 3.6-0.9 5-1.1 2-0.2 4.1-0.4 6.1-0.4-1.7 7.5-4.5 14.9-6.6 22.4-1.2 4.5-1.9 9.7-3.8 13.9-0.5 1-1.6 1.2-2.9 1.2-0.6 0-1.1-0.1-1.7-0.1-1.6 0-3.1 0.2-3.1 2.2 0 1.7 1.5 2.2 3.1 2.2 1.2 0 2.5-0.3 3.3-0.3-1.7 5.9-4.1 17.2-5 23.3v0.6c0 1.5 0.6 3.7 1.9 3.7 0.4 0 0.9-0.2 1.5-0.8 1-1.1 0.9-3.6 1.2-5 0.8-3.9 2.6-13.1 3.6-17 0.3-1.3 0.5-3.9 1.5-4.8 0.6-0.5 1.8-0.7 3.1-0.7 1 0 2 0.1 2.8 0.1h0.5c4.5-0.3 9.1-0.8 13.7-0.9h0.1c0.7 0 1.9 0.1 2.9 0.1 1.5 0 2.9-0.2 3.7-0.7 0.7-0.5 1.1-1 1.1-1.6 0-1.2-1.3-2.3-2.7-2.3-4.4 0-8.7 0.6-13.1 0.8-3.6 0.2-7.5 0-11.1 0.7 1.9-9 4.8-17.9 7.4-26.8 0.7-2.5 1.5-4.9 2.3-7.4 0.3-0.9 0.5-2.3 1.2-2.9 0.7-0.6 2-0.4 2.8-0.4 2-0.1 4.1-0.1 6.1-0.2 6-0.3 10.8-0.1 16.2-0.8 0.8-0.1 1.2-1 1.2-1.9 0-0.9-0.4-1.7-1.2-1.8-1.5-0.1-3-0.2-4.6-0.2-5.5 0-11.4 0.5-18.4 0.5 0-1.5-0.4-2.9-2.1-2.9zm38.7 45.2h-0.1c-1.2 0-2.3 0.3-3.4 0.7-5.4 2-10.6 8.1-12 13.7-0.2 0.7-0.3 1.4-0.3 2 0 3 2 4.7 4.6 4.7 1.3 0 2.8-0.4 4.2-1.2 1.8-1 3.4-2.2 5-3.5 2.8-2.2 5.3-4.9 8.3-7-0.5 1.6-0.7 3.3-0.7 5 0 5.9 2 8.6 9.8 8.6h0.1c8.7 0 15.9-7.5 23.4-13.4 0.6-0.6 0.8-1.2 0.8-1.8 0-1.1-0.8-2.1-1.9-2.1-0.5 0-1 0.3-1.5 0.7-5.8 4.8-9.1 8.4-16.3 11.4-1.4 0.6-3.7 1.2-5.7 1.2-1.3 0-2.5-0.3-3.4-1.1-0.7-0.8-1-2-1-3.4 0-3.8 1.9-9.1 1.9-11.3v-0.2c-0.4-1.1-1.1-1.4-1.8-1.4-1.3 0-3.1 1.3-4 1.9-1-2.2-3.2-3.4-5.5-3.5zm-0.1 4.2h0.2c0.8 0 1.5 0.3 2.1 1 0.2 0.3 0.4 0.6 0.4 0.9 0 1.2-1.9 2.3-2.7 3-2.9 2.7-7.3 7.7-11.5 7.9 0.1-4.4 4.3-9.3 7.8-11.5 1-0.6 2.4-1.3 3.7-1.3zm40.9-5.9c0.3 0 0.6 0 1-0.1 1.3-0.4 2.4-3 2.4-5 0-1.4-0.5-2.6-1.8-2.6-0.2 0-0.4 0-0.7 0.1-1.4 0.4-2.5 3-2.5 5 0 1.3 0.5 2.5 1.6 2.6zm-1.5 4.2h-0.5c-2.4 0.6-2.3 4.3-2.5 6.2-0.1 0.9-0.2 1.9-0.2 3 0 5 1.5 11 7.2 11h0.3c6.4-0.2 12.4-5.7 16.6-10.1 0.7-0.8 3.5-3.6 3.5-5.4 0-0.7-0.4-1.3-1.6-1.5h-0.4c-1.9 0-3.2 2.5-4.4 3.7-3 3-6.2 5.9-10 7.8-1 0.5-2.3 1.3-3.6 1.3-0.3 0-0.7-0.1-1-0.2-1.4-0.6-1.9-2.3-2.1-3.7-0.1-0.9-0.2-1.8-0.2-2.7 0-2.1 0.3-4.3 0.7-6.5 0-0.2 0.1-0.4 0.1-0.6 0-1.2-0.7-2.3-1.9-2.3zm40.5-45.9h-0.4c-0.5 0-0.9 0.1-1.4 0.2-5.2 1.1-8.5 7.1-10.4 11.6-1.6 3.6-2.8 7.4-3.8 11.3h-0.9c-4.5 0-9.6 0.4-14 1.2-1.1 0.2-1.8 1.1-1.8 2.1 0 0.6 0.3 1.2 0.8 1.6 0.5 0.4 1.2 0.6 1.9 0.6 0.6 0 1.3-0.1 1.8-0.2 2.6-0.4 5.2-0.5 7.8-0.8 1.2-0.2 2.3-0.3 3.5-0.4-0.9 4.1-1.5 8.4-1.9 12.5-0.3 2.7-0.6 5.4-0.6 8.1 0 1.3 0.1 2.6 0.2 3.8 0.8 6.8 2.6 14.5 10.8 15h0.5c1.1 0 2.4-0.2 3.5-0.5 5.6-1.6 10.6-5.1 13.4-10.1 0.6-1 1.8-3.6 1.8-5.3 0-0.9-0.3-1.5-1.3-1.5h-0.2c-1.9 0.1-3.2 3.4-4.1 4.9-2 3.9-6.3 6.4-10.5 7.8-0.8 0.3-1.7 0.4-2.5 0.4-2.1 0-4-0.8-5.1-2.8-0.9-1.6-2-4.6-2-6.7 0-0.4 0-0.7 0.1-1 0.3-1.2 1.5-2.4 2.2-3.4 1.5-2.1 2.8-4.4 4.1-6.6 2.9-4.8 5.7-9.9 8-15.2h1.1 6.6c2.4 0 4.8 0.1 7.2 0.2 0.6 0 1.3 0.2 1.9 0.2 0.5 0 0.9-0.1 1.3-0.4 0.8-0.6 1.1-1 1.1-1.5 0-1.5-3.2-2.5-4.5-2.6-3-0.3-6.3-0.5-9.6-0.5-1.1 0-2.1 0.1-3.2 0.1 0.9-2.5 1.7-5 2.3-7.5 0.5-1.8 1-4.6 1-7.3 0-3.8-1-7.2-4.7-7.3zm-0.7 4.3h0.3c0.9 0.3 1.1 1.9 1.1 2.7v0.6c0 2.4-0.8 4.9-1.4 7.2-0.7 2.5-1.6 5.1-2.6 7.6-0.3 0-0.7 0.2-1 0.2-2.3 0.3-4.8 0.3-7.2 0.4 1-3.6 2.2-7.1 3.7-10.5 1.1-2.5 2.6-5.1 4.7-6.9 0.6-0.5 1.5-1.3 2.4-1.3zm-4.4 22.3c-2.8 6.2-6.2 12.2-9.8 17.6-0.1-0.6-0.1-1.1-0.1-1.7 0-2.6 0.7-5.7 1.1-8.1 0.4-2.5 0.9-5 1.5-7.5 2.4-0.1 4.8-0.3 7.3-0.3zm30.4-28.6c-1.8 0-3.4 0.4-5 1.6-3.2 2.4-5 6.2-6.4 9.8-2.5 6.2-3.1 13.2-3.8 19.8-0.9 8.3-2 16.8-2 25.1v8.1c0 0.5-0.1 1.1-0.1 1.7 0 0.9 0.1 1.8 0.6 2.4 0.5 0.6 1 0.9 1.5 0.9 1.7 0 3-3.2 3.6-4.4 2.3-4.9 4.7-7.8 8.6-11.6 1.2-1.2 3.3-3.2 5.2-3.2h0.2c1.8 0.2 2.3 2.7 2.6 4.1 0.7 4 0.1 9.3 3 12.6 1.1 1.3 2.6 1.8 4.2 1.8 1.2 0 2.4-0.3 3.5-0.7 5.2-1.9 8.2-5.5 12.2-9.3 1.5-1.4 3.3-4 3.3-5.4 0-1.4-1-2-2-2-0.7 0-1.5 0.3-2 0.9-3.5 4-7 8-10.4 10.4-0.9 0.6-2.8 1.8-4.2 1.8-0.4 0-0.7 0-1-0.2-1.5-0.9-1.6-3.5-1.8-5.1-0.4-3.6-0.5-7.6-2.5-10.7-1.2-1.8-2.9-2.5-4.8-2.5-1.2 0-2.4 0.3-3.5 0.8-4.6 2-9.4 7.6-11.7 11.2v-0.7c0-3.1 3.7-7.6 5.8-11.2 5.4-9.4 11.5-19.4 13.3-30.2 0.3-1.7 0.5-3.5 0.5-5.4 0-2.9-0.6-5.8-2.4-8.1-1.2-1.5-2.8-2.2-4.5-2.3zm-0.6 4.1c1.6 0.1 2.4 1.7 2.8 3 0.3 1.2 0.5 2.4 0.5 3.7 0 1.6-0.3 3.2-0.6 4.8-2.3 11.6-8.8 23.2-15.1 33.1 0.8-10.7 2.1-44.3 12.4-44.6zm123.3-2.7c-0.7 0-1.3 0.3-1.7 0.9-1.2 2-1.3 5.4-1.7 7.6-2.1 11.8-5.5 24-6.4 36-3.3-0.6-6.7-0.9-10-0.9-6.7 0-13.5 0.9-20.1 0.9 1.5-11.5 5.5-22.6 6.9-34.2 0.1-0.5 0.1-1 0.1-1.6 0-3.5-1.3-7.5-4.7-7.5-0.6 0-1.3 0.2-2.1 0.5-3.7 1.4-6.5 4.5-9.1 7.3-4.3 4.7-8.3 9.6-12 14.8-1.4 1.9-3.2 4.3-3.7 6.7 0 0.2-0.1 0.4-0.1 0.6 0 1.1 0.7 2.2 1.9 2.4 0.8 0.1 1.5-0.2 2-0.8 1.5-2.1 2.4-5 4-7.2 3.6-5.1 7.6-10.2 12-14.6 2.1-2.1 4.4-4.4 7.2-5.4 0.2 1.3 0.2 2.5 0.2 3.8 0 7.9-2.7 16.1-4.4 23.6-0.8 3.3-0.9 8.3-2.6 11.3-0.5 0.9-1.9 0.7-2.8 0.8-2.6 0.3-5.2 0.5-7.8 1-1.1 0.2-2.1 1-2.1 2.2 0 1.2 1 2.1 2.1 2.1h0.6c2.8 0 6.3-0.8 9-1.3-0.7 5.2-1.7 13.8-2.4 19.1-0.1 0.9-0.5 2.2-0.5 3.3 0 1 0.3 1.9 1.1 2.4 0.4 0.3 0.8 0.5 1.1 0.5 1.4 0 2.1-2 2.3-3.3 0.7-6.2 2.4-16 2.7-22.2 5.8-0.5 11.6-0.7 17.3-0.7 4.4 0 8.8 0.2 13.2 0.5-1 5.4-1.3 14.5-1.4 20v1.4c0 1.6 0.2 3.4 1.6 3.4 0.3 0 0.7 0 1.2-0.3 1.2-0.6 1.3-2.1 1.3-3.4v-0.8c0-3.8 0.3-11.1 0.8-14.9 1.8-12.8 4.1-25.5 6.5-38.1 0.7-3.5 1.3-6.9 2-10.4 0.2-0.9 0.6-2.2 0.6-3.3 0-0.4 0-0.8-0.1-1.1-0.3-0.8-1.2-1.1-2-1.1zm-41.5 18.5c0 0-0.2-0.1-0.2-0.1 0 0 0.2 0.1 0.2 0.1zm61.8 25.5h-0.1c-1.2 0-2.3 0.3-3.4 0.7-5.4 2-10.6 8.1-12 13.7-0.2 0.7-0.3 1.4-0.3 2 0 3 2 4.7 4.6 4.7 1.3 0 2.8-0.4 4.2-1.2 1.8-1 3.4-2.2 5-3.5 2.8-2.2 5.3-4.9 8.3-7-0.5 1.6-0.7 3.3-0.7 5 0 5.9 2 8.6 9.8 8.6h0.1c8.7 0 15.9-7.5 23.4-13.4 0.6-0.6 0.8-1.2 0.8-1.8 0-1.1-0.8-2.1-1.9-2.1-0.5 0-1 0.3-1.5 0.7-5.8 4.8-9.1 8.4-16.3 11.4-1.4 0.6-3.7 1.2-5.7 1.2-1.3 0-2.5-0.3-3.4-1.1-0.7-0.8-1-2-1-3.4 0-3.8 1.9-9.1 1.9-11.3v-0.2c-0.4-1.1-1.1-1.4-1.8-1.4-1.3 0-3.1 1.3-4 1.9-1-2.2-3.2-3.4-5.5-3.5zm-0.1 4.2h0.2c0.8 0 1.5 0.3 2.1 1 0.2 0.3 0.4 0.6 0.4 0.9 0 1.2-1.9 2.3-2.7 3-2.9 2.7-7.3 7.7-11.5 7.9 0.1-4.4 4.3-9.3 7.8-11.5 1-0.6 2.4-1.3 3.7-1.3zm56.8-50.8c-0.5 0-1 0-1.6 0.1-5.5 1-8.9 6.6-11.2 11.2-5 10.1-6.6 22.1-7.1 33.3-0.1 1.6-0.1 3.3-0.1 4.9 0 4.5 0.3 8.9 1 11.3 2.1 5.5 5.7 10.6 11.8 10.6 0.9 0 1.9-0.1 3-0.4 6.6-1.6 11.4-6 15.2-11.4 0.7-0.9 2.9-3.8 2.9-5.6 0-0.8-0.4-1.4-1.5-1.6h-0.4c-2.4 0-4.2 4.2-5.4 5.9-2.8 3.9-8.5 8.7-13.6 8.7-2.5 0-4.9-1.2-6.7-4.3-0.9-1.6-2-4.3-2-6.4 0-0.4 0-0.7 0.1-1 1.8-3.3 3.9-6.7 5.6-9.6 5.5-9.8 11-20 14.5-30.7 0.6-2 1.3-4.8 1.3-7.4 0-4-1.3-7.6-5.7-7.6zm-0.3 4.2c0.2 0 0.4 0 0.6 0.1 1.3 0.5 1.3 2 1.3 3.1 0 2.8-0.7 5.5-1.7 8.1-4.1 11.1-9.9 21.1-15.4 31.5 0-0.9-0.1-1.8-0.1-2.7 0-11 2.6-23.9 7.1-32.1 1.4-2.6 3-5.1 5.4-6.9 0.7-0.5 1.6-1 2.5-1.1zm22.1 41.9c-0.6 0-1.2 0.1-1.7 0.2-6.3 1.1-12.9 8.3-12.9 14.9 0 2.7 1.1 5.4 3.8 7.4 1.3 1 2.8 1.6 4.3 2.1 2.1 0.6 4.1 0.9 6.1 0.9 8.1 0 15.6-4.5 21.9-9.3 2.4-1.8 5-3.8 7.1-6 0.5-0.5 0.9-1.2 0.9-1.9 0-0.5-0.2-1-0.7-1.4-0.4-0.3-0.8-0.5-1.3-0.5-2.2 0-5.2 3.4-6.5 4.5-6.5 5.4-13.2 9.7-22 10.2h-0.6c-3.9 0-8.6-2.2-8.6-6.4 0-0.3 0-0.6 0.1-0.9 0.1-0.8 0.3-2 0.9-2.6 0.2-0.2 0.5-0.2 1-0.2 1.3 0 3.5 0.6 4.3 0.7 0.6 0.1 1.3 0.1 2 0.1 3.8 0 8.5-1.2 9.7-4.8 0.2-0.6 0.3-1.1 0.3-1.6 0-3.7-4.5-5.4-8.1-5.4zm0 4.2c1.2 0 3.4 0.1 3.5 1.3 0.1 1-1.4 1.4-2.1 1.6-1.1 0.3-2.3 0.4-3.5 0.4-1.3 0-2.6-0.2-3.9-0.3 1-1.9 3.8-2.9 6-3zm-238 52.8c-2.3-1.2-4.8-1.8-7.4-1.8-5.5 0-11.3 2.3-16.1 4.3-0.2-0.4-0.3-0.9-0.6-1.3-0.6-0.7-1-0.9-1.5-0.9-1.8 0-2.9 4.5-3.8 5.4-3.7 3.6-8.7 5.8-12.1 9.9-0.6 0.8-1.3 2.5-1.3 3.8 0 1 0.3 1.7 1.3 1.7 0.3 0 0.7-0.1 1.2-0.3 1.6-0.6 3.2-3.7 4.6-4.9 1.7-1.5 3.4-2.9 5.2-4.3-2.4 11.8-4.3 23.8-6.3 35.7-0.3 1.8-0.2 4.4-1 6.1-0.4 0.9-1.7 0.7-2.4 1.4-0.4 0.4-0.5 0.9-0.5 1.3 0 1.1 1.2 2.1 2.4 2.3-0.2 3.8-1 7.7-1 11.5 0 0.8 0.1 1.7 0.2 2.5 0.1 1.2 1.1 1.9 2.1 1.9 0.7 0 1.4-0.4 1.8-1.1 0.3-0.5 0.2-1 0.2-1.6v-1.5c0-3 0.3-6 0.7-9 0.1-1.1 0-3 0.9-3.8 0.9-0.8 2.5-1.1 3.6-1.6 2.5-1.2 4.9-2.4 7.2-3.9 9.6-6.2 17.9-13.8 23.4-24 2.3-4.2 4.9-11 4.9-17 0-4.5-1.4-8.5-5.7-10.8zm-8.1 2.4h0.6c3.2 0 6 0.9 7.6 3.4 1 1.6 1.4 3.6 1.4 5.7 0 4-1.5 8.5-3 11.5-4.9 10-12.4 17.8-21.6 24-3 2-6.6 4.7-10.2 5.3 1.6-8.4 2.8-16.9 4.2-25.4 0.7-4.3 1.5-8.6 2.4-12.9 0.3-1.6 0.4-4.2 1.4-5.5 0.9-1.3 3.7-2.1 5.1-2.8 2.9-1.4 7.7-3.1 12.1-3.3zm28.7-4.3c-1.8 0-3.4 0.4-5 1.6-3.2 2.4-5 6.2-6.4 9.8-2.5 6.2-3.1 13.2-3.8 19.8-0.9 8.3-2 16.8-2 25.1v8.1c0 0.5-0.1 1.1-0.1 1.7 0 0.9 0.1 1.8 0.6 2.4 0.5 0.6 1 0.9 1.5 0.9 1.7 0 3-3.2 3.6-4.4 2.3-4.9 4.7-7.8 8.6-11.6 1.2-1.2 3.3-3.2 5.2-3.2h0.2c1.8 0.2 2.3 2.7 2.6 4.1 0.7 4 0.1 9.3 3 12.6 1.1 1.3 2.6 1.8 4.2 1.8 1.2 0 2.4-0.3 3.5-0.7 5.2-1.9 8.2-5.5 12.2-9.3 1.5-1.4 3.3-4 3.3-5.4 0-1.4-1-2-2-2-0.7 0-1.5 0.3-2 0.9-3.5 4-7 8-10.4 10.4-0.9 0.6-2.8 1.8-4.2 1.8-0.4 0-0.7 0-1-0.2-1.5-0.9-1.6-3.5-1.8-5.1-0.4-3.6-0.5-7.6-2.5-10.7-1.2-1.8-2.9-2.5-4.8-2.5-1.2 0-2.4 0.3-3.5 0.8-4.6 2-9.4 7.6-11.7 11.2v-0.7c0-3.1 3.7-7.6 5.8-11.2 5.4-9.4 11.5-19.4 13.3-30.2 0.3-1.7 0.5-3.5 0.5-5.4 0-2.9-0.6-5.8-2.4-8.1-1.2-1.5-2.8-2.2-4.5-2.3zm-0.6 4.1c1.6 0.1 2.4 1.7 2.8 3 0.3 1.2 0.5 2.4 0.5 3.7 0 1.6-0.3 3.2-0.6 4.8-2.3 11.6-8.8 23.2-15.1 33.1 0.8-10.7 2.1-44.3 12.4-44.6zm38.6 38.6h-1.4c-0.9 0.1-2.4 2.1-4.9 4.2-2.5 2.2-7.3 8.1-7.3 14.1 0 1.4 0.3 2.8 0.9 4.2 1.2 2.6 3.6 3.7 6.1 3.7 1.7 0 3.4-0.5 4.9-1.3 4.9-2.5 7.8-7.8 7.8-13.3 4.7 2.9 9.1 4.6 14.1 4.6 1.7 0 3.4-0.2 5.3-0.6 2.2-0.5 5.3-1.6 7-3.2 0.5-0.5 0.9-1.2 0.9-1.9 0-0.6-0.2-1.2-0.7-1.6-0.4-0.3-0.8-0.4-1.2-0.4-1.3 0-2.6 1.2-3.7 1.6-2.7 1-5.8 1.9-8.8 1.9-0.8 0-1.6 0-2.4-0.2-4.8-0.9-8.8-4.2-12.2-7.4-1.4-1.3-2.4-3.9-4.4-4.4zm-0.9 6.2c2.5 0 2.7 4 2.7 5.7 0 4-3.3 10.2-7.8 10.2-0.4 0-0.8-0.1-1.2-0.2-1.6-0.4-2.1-1.9-2.1-3.4 0-0.5 0.1-0.9 0.2-1.4 0.6-3.6 2.4-6.7 5.2-9.1 0.7-0.6 1.9-1.7 3-1.8zm50.7-46.9h-0.4c-0.5 0-0.9 0.1-1.4 0.2-5.2 1.1-8.5 7.1-10.4 11.6-1.6 3.6-2.8 7.4-3.8 11.3h-0.9c-4.5 0-9.6 0.4-14 1.2-1.1 0.2-1.8 1.1-1.8 2.1 0 0.6 0.3 1.2 0.8 1.6 0.5 0.4 1.2 0.6 1.9 0.6 0.6 0 1.3-0.1 1.8-0.2 2.6-0.4 5.2-0.5 7.8-0.8 1.2-0.2 2.3-0.3 3.5-0.4-0.9 4.1-1.5 8.4-1.9 12.5-0.3 2.7-0.6 5.4-0.6 8.1 0 1.3 0.1 2.6 0.2 3.8 0.8 6.8 2.6 14.5 10.8 15h0.5c1.1 0 2.4-0.2 3.5-0.5 5.6-1.6 10.6-5.1 13.4-10.1 0.6-1 1.8-3.6 1.8-5.3 0-0.9-0.3-1.5-1.3-1.5h-0.2c-1.9 0.1-3.2 3.4-4.1 4.9-2 3.9-6.3 6.4-10.5 7.8-0.8 0.3-1.7 0.4-2.5 0.4-2.1 0-4-0.8-5.1-2.8-0.9-1.6-2-4.6-2-6.7 0-0.4 0-0.7 0.1-1 0.3-1.2 1.5-2.4 2.2-3.4 1.5-2.1 2.8-4.4 4.1-6.6 2.9-4.8 5.7-9.9 8-15.2h1.1 6.6c2.4 0 4.8 0.1 7.2 0.2 0.6 0 1.3 0.2 1.9 0.2 0.5 0 0.9-0.1 1.3-0.4 0.8-0.6 1.1-1 1.1-1.5 0-1.5-3.2-2.5-4.5-2.6-3-0.3-6.3-0.5-9.6-0.5-1.1 0-2.1 0.1-3.2 0.1 0.9-2.5 1.7-5 2.3-7.5 0.5-1.8 1-4.6 1-7.3 0-3.8-1-7.2-4.7-7.3zm-0.7 4.3h0.3c0.9 0.3 1.1 1.9 1.1 2.7v0.6c0 2.4-0.8 4.9-1.4 7.2-0.7 2.5-1.6 5.1-2.6 7.6-0.3 0-0.7 0.2-1 0.2-2.3 0.3-4.8 0.3-7.2 0.4 1-3.6 2.2-7.1 3.7-10.5 1.1-2.5 2.6-5.1 4.7-6.9 0.6-0.5 1.5-1.3 2.4-1.3zm-4.4 22.3c-2.8 6.2-6.2 12.2-9.8 17.6-0.1-0.6-0.1-1.1-0.1-1.7 0-2.6 0.7-5.7 1.1-8.1 0.4-2.5 0.9-5 1.5-7.5 2.4-0.1 4.8-0.3 7.3-0.3zm23.4 14.1h-1.4c-0.9 0.1-2.4 2.1-4.9 4.2-2.5 2.2-7.3 8.1-7.3 14.1 0 1.4 0.3 2.8 0.9 4.2 1.2 2.6 3.6 3.7 6.1 3.7 1.7 0 3.4-0.5 4.9-1.3 4.9-2.5 7.8-7.8 7.8-13.3 4.7 2.9 9.1 4.6 14.1 4.6 1.7 0 3.4-0.2 5.3-0.6 2.2-0.5 5.3-1.6 7-3.2 0.5-0.5 0.9-1.2 0.9-1.9 0-0.6-0.2-1.2-0.7-1.6-0.4-0.3-0.8-0.4-1.2-0.4-1.3 0-2.6 1.2-3.7 1.6-2.7 1-5.8 1.9-8.8 1.9-0.8 0-1.6 0-2.4-0.2-4.8-0.9-8.8-4.2-12.2-7.4-1.4-1.3-2.4-3.9-4.4-4.4zm-0.9 6.2c2.5 0 2.7 4 2.7 5.7 0 4-3.3 10.2-7.8 10.2-0.4 0-0.8-0.1-1.2-0.2-1.6-0.4-2.1-1.9-2.1-3.4 0-0.5 0.1-0.9 0.2-1.4 0.6-3.6 2.4-6.7 5.2-9.1 0.7-0.6 1.9-1.7 3-1.8z"/>
</svg>