<svg version="1.2" xmlns="http://www.w3.org/2000/svg" viewBox="0 0 432 212" width="432" height="212">
	<title>FaithHaleLogo2</title>
	<style>
		.s0 { fill: #181818 } 
	</style>
	<path id="Faith Hale Photo" class="s0" aria-label="Faith Hale
Photo"  d="m6.9 73.8q2.9-4.1 6.5-7.3 3.6-3.3 7.8-5.9 2.1-1.2 4.4-2.3 2.2-1.1 4.7-2 0.3-6 0.4-12 0-5.9 0-12 0-4.6 0-9.1 0-4.5 0-9.1-3.1 0.2-6.2 0.5-3.1 0.3-6.2 0.7h-0.1q-0.5 0-0.9-0.4-0.3-0.5-0.3-0.9 0-0.5 0.3-1 0.4-0.4 1.2-0.5 3.1-0.1 6.1-0.3 3-0.2 6.1-0.4v-2.3q0-0.9 0.5-1.3 0.6-0.5 1.2-0.5 0.4 0 0.6 0.2 0.4 0.1 0.6 0.3 0.3 0.3 0.4 0.6 0.2 0.4 0.2 0.9v1.9q7.7-0.4 15.4-0.6 7.7-0.3 15.5-0.3 2 0 3.8 0 1.9 0 3.5 0.1 1.6 0.1 2.9 0.2 1.2 0.1 2 0.2 1 0.2 1.3 0.7 0.5 0.6 0.4 1.2 0 0.6-0.4 1.1-0.5 0.4-1.3 0.4h-0.2q-7.4-0.5-14.7-0.9-7.3-0.3-14.7-0.3-3.4 0-6.8 0.1-3.3 0.1-6.7 0.3 0 10.4-0.2 20.7-0.1 10.4-0.6 20.7 3.5-1.1 7.3-2 3.7-0.9 7.5-1.6 3.9-0.7 7.7-1.2 3.9-0.5 7.7-1 3.7-0.4 7.3-0.8 3.6-0.4 6.9-0.7 0.1 0 0.1 0 0.1-0.1 0.2-0.1 0.7 0 1.1 0.6 0.4 0.5 0.4 1.1 0 0.7-0.5 1.2-0.4 0.6-1.3 0.7-3.3 0.3-6.9 0.6-3.6 0.4-7.4 0.7-3.8 0.4-7.7 0.9-3.9 0.5-7.8 1.1-3.8 0.7-7.6 1.5-3.7 0.9-7.2 2-0.1 2.6-0.3 5.2-0.2 2.6-0.4 5.2-0.4 4.4-1 8.6-0.5 4.2-1.2 7.9-0.6 3.7-1.3 6.9-0.7 3.2-1.5 5.6-0.5 1.5-1.1 3.2-0.6 1.6-1.5 3.1-0.8 1.5-1.8 2.8-1 1.3-2.3 2.3-1.3 1-2.9 1.6-1.5 0.6-3.4 0.6-2.1 0-4-0.9-1.8-0.8-3.3-2.2-1.5-1.5-2.7-3.3-1.2-1.9-2-4-0.7-2-1.2-4.1-0.4-2.1-0.4-3.9 0-5.5 1.6-10.3 1.6-4.7 4.4-8.7zm-3.7 19q0 1.4 0.4 3.2 0.3 1.8 1 3.6 0.6 1.8 1.6 3.5 0.9 1.7 2.2 3 1.2 1.3 2.7 2.1 1.5 0.8 3.3 0.8 1.6 0 2.8-0.6 1.3-0.6 2.4-1.6 1.1-1 1.9-2.3 0.9-1.3 1.5-2.7 0.7-1.4 1.2-2.8 0.5-1.4 0.8-2.7 1.8-6 2.8-13 1.1-7.1 1.8-14.8 0.1-2.3 0.3-4.6 0.2-2.3 0.3-4.7-2.2 0.9-4.2 1.8-1.9 0.9-3.8 2.1-4 2.5-7.5 5.6-3.5 3.1-6.2 6.9-2.5 3.6-3.9 7.9-1.4 4.2-1.4 9.3zm73.9-8.1q0-1.6 0.5-3 0.5-1.5 1.3-2.8 0.9-1.3 2-2.4 1.1-1.2 2.4-2 2.1-1.3 4.6-2 2.5-0.7 5.2-0.7 1.3 0 2.5 0.2 1.3 0.2 2.5 0.6 0.6 0.3 0.9 0.8 0.3 0.5 0.3 1-0.1 0.5-0.4 0.9-0.4 0.3-0.9 0.3-0.5 0-1.1-0.3-1.1-0.7-2.5-1-1.3-0.3-2.7-0.3-1.9 0-3.7 0.5-1.7 0.5-3.2 1.5-1 0.7-1.9 1.7-0.8 1-1.5 2.1-0.6 1.1-1 2.3-0.3 1.2-0.3 2.5 0 0.9 0.2 1.6 0.3 0.6 0.8 1.1 0.5 0.4 1.2 0.5 0.6 0.2 1.3 0.2 0.7 0 1.4-0.1 0.8-0.1 1.4-0.3 0.7-0.3 1.3-0.5 0.7-0.3 1.2-0.6 1.6-1 2.9-2.5 1.3-1.5 2.2-3.2 0.1-0.1 0.1-0.3 0.2-0.3 0.3-0.5 0.1-0.3 0.2-0.6 0.1-0.3 0.2-0.5 0.3-0.6 0.7-0.8 0.5-0.3 1-0.3 0.3 0 0.6 0.1 0.3 0.1 0.5 0.4 0.2 0.3 0.3 0.6 0.1 0.4 0 0.9-0.1 0.3-0.2 0.6-0.1 0.3-0.1 0.6-0.1 0.3-0.2 0.6 0 0.3-0.1 0.4-0.1 0.5-0.2 1.2-0.1 0.7-0.3 1.6-0.1 0.8-0.2 1.6 0 0.9 0 1.8 0 1.1 0.1 2.1 0.2 1 0.6 1.7 0.4 0.8 1 1.2 0.7 0.5 1.7 0.5 1.1 0 2.1-0.4 1-0.3 2-1 0.9-0.6 1.8-1.5 0.9-0.8 1.7-1.8 0.8-1 1.5-2.1 0.8-1 1.4-2.1 0.6-1 1.1-1.9 0.5-1 0.8-1.7 0.2-0.3 0.4-0.5 0.3-0.1 0.5-0.1 0.2 0 0.4 0.1 0.3 0.2 0.4 0.4 0.1 0.3 0.1 0.6 0 0.3-0.2 0.7-0.3 0.5-0.6 1.1-0.4 0.6-0.8 1.3-0.4 0.7-0.7 1.3-0.4 0.6-0.7 1.1-1.1 1.7-2.3 3.3-1.2 1.5-2.7 2.7-1.4 1.3-3.2 2-1.7 0.7-3.8 0.7-1.7 0-2.8-0.6-1-0.7-1.7-1.8-0.6-1.1-0.9-2.4-0.2-1.4-0.2-2.8 0-1.2 0.1-2.2 0.1-1.1 0.3-2.1-0.9 1.4-2.2 2.6-1.3 1.1-2.9 2-1.5 0.8-3.2 1.2-1.7 0.4-3.3 0.4-1.2 0-2.1-0.3-1-0.3-1.7-1-0.7-0.7-1.1-1.7-0.4-1.1-0.4-2.5zm39.1-14.5q0.5 0 0.7 0.2 0.3 0.2 0.5 0.6 0.2 0.4 0.3 0.9 0 0.5 0 1 0 1-0.1 2.1-0.2 1.1-0.5 2.2-0.3 1.1-0.8 2.1-0.4 1-1 1.7 0 0.6 0 1.2-0.1 0.6-0.1 1.2 0 0.7 0.1 1.7 0.2 1 0.4 2.2 0.3 1.1 0.8 2.3 0.5 1.1 1.3 2 0.7 0.9 1.7 1.5 1.1 0.6 2.5 0.6 1 0 2-0.4 1.1-0.3 2-1 1-0.6 1.9-1.5 0.9-0.8 1.7-1.8 0.8-1 1.5-2.1 0.7-1 1.3-2.1 0.7-1 1.1-1.9 0.5-1 0.9-1.7 0.2-0.3 0.4-0.5 0.2-0.1 0.5-0.1 0.2 0 0.4 0.1 0.2 0.2 0.4 0.4 0.1 0.3 0.1 0.6 0 0.3-0.2 0.7-0.3 0.5-0.7 1.1-0.3 0.6-0.7 1.3-0.4 0.7-0.8 1.3-0.3 0.6-0.6 1.1-1.1 1.7-2.3 3.3-1.2 1.5-2.7 2.7-1.5 1.3-3.2 2-1.8 0.7-3.9 0.7-1.8 0-3.2-0.6-1.4-0.6-2.4-1.6-1-1.1-1.6-2.4-0.7-1.3-1.1-2.7-0.3-1.4-0.5-2.7-0.1-1.4-0.1-2.5 0-0.3 0-1.1 0.1-0.7 0.2-1.7 0.1-1 0.3-2.2 0.2-1.1 0.4-2.3 0.3-1.1 0.6-2.2 0.3-1.1 0.7-1.9 0.4-0.8 0.8-1.3 0.5-0.5 1-0.5zm-0.5-9.2q0.1-0.8 0.4-1.3 0.3-0.6 0.7-1 0.4-0.4 0.9-0.6 0.5-0.2 1-0.2 0.5 0 1 0.2 0.5 0.2 0.8 0.6 0.4 0.4 0.5 1 0.2 0.5 0.1 1.3-0.1 0.8-0.4 1.4-0.2 0.7-0.7 1.1-0.4 0.4-0.9 0.6-0.5 0.2-1 0.2-0.5 0-1-0.2-0.4-0.2-0.8-0.6-0.3-0.4-0.5-1-0.2-0.7-0.1-1.5zm10.3-6.4q3.6-0.4 6.8-0.9 3.2-0.5 6.1-1 0.2-0.6 0.7-2.1 0.4-1.5 1-3.5 0.6-2 1.3-4.3 0.8-2.4 1.7-4.7 0.8-2.4 1.7-4.5 1-2.2 1.9-3.9 1-1.7 2-2.7 0.9-1 1.8-1 0.6 0 0.9 0.4 0.4 0.3 0.6 0.8 0.3 0.5 0.4 1.3 0.1 0.7 0.1 1.6 0 1.2-0.2 2.8-0.2 1.5-0.5 3.2-0.3 1.7-0.7 3.5-0.4 1.9-0.9 3.8-0.5 1.9-1 3.8-0.5 1.9-1.1 3.8 4.9-1 8.9-1.9 3.9-1 7.4-1.9 0.2 0 0.4 0 0.2-0.1 0.3-0.1 0.6 0 0.8 0.3 0.3 0.2 0.3 0.5 0 0.2-0.3 0.5-0.2 0.3-0.8 0.4-3.8 0.9-8.1 1.9-4.3 1-9.4 2.1-2.3 7.5-5 15-2.8 7.4-6.1 14.4 0 2.2 0.3 4.4 0.3 2.2 0.8 4.3 0.5 1.4 1 2.8 0.5 1.3 1.3 2.3 0.7 1.1 1.7 1.7 1 0.6 2.2 0.6 2 0 4.1-1.4 2.2-1.5 4.5-4 1.7-2 3.5-4.9 1.8-2.9 3.8-6.8 0.3-0.6 0.8-0.6 0.2 0 0.4 0.1 0.3 0.2 0.4 0.4 0.1 0.3 0.1 0.6 0 0.3-0.2 0.7-2 3.9-3.8 6.8-1.8 2.8-3.6 4.9-1.2 1.5-2.6 2.7-1.3 1.1-2.6 1.9-1.3 0.8-2.7 1.3-1.3 0.4-2.6 0.4-1.5 0-2.7-0.5-1.2-0.6-2.2-1.5-1-0.9-1.7-2.1-0.8-1.3-1.3-2.7-0.6-1.4-1-2.9-0.3-1.5-0.6-3-0.2-1.5-0.3-2.9-0.1-1.4-0.1-2.5 0-2.6 0.3-5.8 0.4-3.2 1-6.8 0.6-3.5 1.4-7.3 0.8-3.7 1.7-7.4-2.7 0.6-5.7 1.2-3 0.7-6.2 1.3-0.1 0.1-0.3 0.1-0.2 0-0.3 0-0.9 0-1.3-0.4-0.4-0.4-0.4-0.9 0-0.6 0.5-1 0.5-0.5 1.4-0.7zm20.8-3.3q0.9-2.7 1.6-5.6 0.8-3 1.4-5.8 0.6-2.8 1-5.3 0.3-2.6 0.3-4.7 0-0.7-0.1-1.1-0.1-0.4-0.3-0.4-0.1 0-0.5 0.4-0.2 0.4-0.6 1.2-0.4 0.7-0.9 1.8-0.5 1.1-1 2.4-0.6 1.7-1.3 3.7-0.7 2-1.4 4.3-0.7 2.3-1.4 4.8-0.7 2.5-1.4 5.2 1.2-0.3 2.4-0.5 1.1-0.2 2.2-0.4zm-5.2 3q-0.7 2.9-1.4 6-0.6 3-1.2 5.9-0.6 2.9-1 5.7-0.4 2.8-0.7 5.2 2.6-5.8 4.9-11.8 2.2-5.9 4.1-12.1-2.3 0.5-4.7 1.1zm29.8-35.7q1-1.8 2.1-3.2 1.1-1.5 2.2-2.6 1.2-1 2.4-1.6 1.2-0.6 2.4-0.6 1 0 1.8 0.3 0.7 0.4 1.3 1 0.5 0.6 0.8 1.4 0.4 0.7 0.6 1.6 0.2 0.9 0.2 1.8 0.1 0.9 0.1 1.7 0 2.1-0.3 4.7-0.4 2.5-1 5.2-0.5 2.6-1.3 5.4-0.8 2.8-1.6 5.4-0.8 2.6-1.7 5.1-0.9 2.4-1.6 4.4-1.6 4-3.3 8-1.8 3.9-3.6 7.7-1.9 3.9-3.8 7.7-2 3.8-3.9 7.7 0.1 3.3 0.2 6.5 0.2 3.2 0.3 6.3 0.4-1.3 0.9-3.2 0.6-1.8 1.3-3.9 0.7-2.2 1.6-4.3 0.9-2.2 2-4.1 0.6-1.1 1.4-2.2 0.8-1 1.8-1.9 1-0.8 2.1-1.3 1.2-0.5 2.6-0.5 1.6 0 2.6 0.6 1 0.7 1.6 1.7 0.6 1.1 0.8 2.4 0.3 1.2 0.3 2.5 0 1-0.2 2.2-0.1 1.2-0.3 2.4-0.2 1.3-0.4 2.5-0.1 1.3-0.2 2.5 0 1.2 0.1 2.3 0.2 1.1 0.6 2 0.3 0.6 0.8 1.1 0.6 0.4 1.5 0.4 1 0 2.1-0.4 1-0.3 1.9-1 1-0.6 1.9-1.5 0.9-0.8 1.7-1.8 0.8-1 1.5-2.1 0.8-1 1.4-2.1 0.6-1 1-1.9 0.5-1 0.9-1.7 0.2-0.3 0.4-0.5 0.3-0.1 0.5-0.1 0.2 0 0.4 0.1 0.3 0.2 0.4 0.4 0.1 0.3 0.1 0.6 0 0.3-0.2 0.7-0.3 0.5-0.7 1.1-0.3 0.6-0.7 1.3-0.4 0.7-0.8 1.3-0.3 0.6-0.6 1.1-1.1 1.7-2.3 3.3-1.2 1.5-2.7 2.7-1.5 1.3-3.2 2-1.8 0.7-3.8 0.7-0.8 0-1.5-0.2-0.6-0.2-1.1-0.6-0.5-0.4-0.8-0.9-0.4-0.5-0.6-1.2-0.7-1.7-0.8-3.6-0.1-1.8 0-3.7 0.2-1.8 0.4-3.7 0.2-1.8 0.2-3.7 0-0.6-0.1-1.5-0.2-0.8-0.5-1.6-0.4-0.7-0.9-1.3-0.6-0.5-1.5-0.5-0.8 0-1.6 0.5-0.8 0.4-1.5 1-0.7 0.6-1.3 1.4-0.5 0.7-1 1.3-0.8 1.4-1.6 3-0.8 1.6-1.5 3.3-0.7 1.7-1.3 3.4-0.5 1.6-1 3.2-0.4 1.5-0.7 2.7-0.3 1.2-0.5 2-0.1 0.9-0.7 1.3-0.6 0.5-1.2 0.5-0.5 0-0.9-0.4-0.4-0.3-0.5-1-0.6-4.7-0.9-10-0.2-5.2-0.2-10.8 0-4.9 0.2-10 0.3-5.1 0.8-10.1 0.6-5 1.5-9.9 0.9-4.9 2.1-9.5 1.3-4.6 2.9-8.9 1.6-4.2 3.7-7.8zm4.9 29.2q0.6-1.4 1.2-3.2 0.6-1.7 1.2-3.6 0.6-2 1.2-4 0.6-2.1 1.2-4.2 0.2-0.8 0.4-1.8 0.3-1 0.5-2.2 0.3-1.1 0.6-2.4 0.2-1.3 0.4-2.6 0.2-1.4 0.4-2.7 0.1-1.3 0.1-2.5 0-0.4 0-1.1-0.1-0.6-0.2-1.2-0.1-0.7-0.3-1.3-0.2-0.7-0.5-1.1-0.3-0.5-0.8-0.8-0.5-0.4-1.1-0.4-1 0-2.1 0.8-1 0.8-2 2.1-1 1.2-2 2.8-0.9 1.6-1.7 3.1-0.8 1.6-1.5 2.9-0.6 1.4-0.9 2.3-2.1 5.3-3.5 11-1.4 5.8-2.2 11.8-0.8 6-1.2 12.2-0.3 6.1-0.3 12.2 0 0.5 0 1.1 0 0.5 0 1.1 1.7-3.6 3.4-7 1.8-3.5 3.4-7.1 1.7-3.5 3.3-7.1 1.6-3.5 3-7.1zm68.7 40.4q0.2-4 1.6-7.5 1.4-3.5 3.8-6.5 2.3-2.9 5.3-5.3 3.1-2.3 6.6-4 1.6-0.7 3.3-1.3 1.7-0.6 3.6-1.1 0.3-6.7 0.3-13.2 0.1-6.6-0.1-13.2 0-6.5-0.2-13.1-0.2-6.6-0.3-13.2 0-0.5 0.1-0.9 0.2-0.4 0.4-0.6 0.3-0.3 0.6-0.4 0.4-0.2 0.7-0.2 0.7 0 1.2 0.5 0.5 0.4 0.5 1.3 0.5 12 0.4 23.9-0.1 12-0.7 23.9 0 1.1-0.1 2.2-0.1 1.2-0.1 2.3 5.2-1.2 11.2-1.6 5.9-0.5 12.1-0.5 3.7 0 7.4 0.1 3.6 0.2 7.2 0.4 3.6 0.2 6.9 0.5 3.5 0.2 6.6 0.5 0.6-12.8 0.5-25.6 0-12.8-0.4-25.6 0-0.4 0.1-0.8 0.2-0.3 0.4-0.5 0.2-0.2 0.6-0.3 0.3-0.2 0.6-0.2 0.3 0 0.7 0.2 0.3 0.1 0.6 0.3 0.2 0.2 0.3 0.6 0.2 0.3 0.2 0.7-0.1 12.9-0.3 25.7-0.2 12.9-0.7 25.7 1.5 0.1 2.8 0.3 1.4 0.1 2.8 0.2 0.6 0.1 0.9 0.4 0.4 0.2 0.6 0.6 0.2 0.4 0.2 0.9 0 0.4-0.3 0.8-0.2 0.3-0.5 0.6-0.4 0.2-1 0.2h-0.2q-1.3-0.1-2.7-0.2-1.4-0.2-2.8-0.3-0.3 6-0.7 11.9-0.4 6-0.9 12-0.5 5.9-1.2 11.9-0.7 5.9-1.6 11.9-0.1 0.7-0.6 1-0.4 0.4-1 0.4-0.3 0-0.6-0.1-0.3-0.2-0.5-0.4-0.2-0.3-0.3-0.7-0.1-0.4 0-1 2-11.7 3.1-23.5 1.2-11.8 1.8-23.7-3.7-0.4-7.6-0.8-4-0.4-8-0.8-4-0.3-8.1-0.6-4.1-0.2-8.2-0.2-5.2 0-10.1 0.5-4.9 0.4-9.5 1.5-0.2 4-0.5 8.1-0.3 4.1-0.7 8-0.4 4-0.9 7.7-0.5 3.7-1 6.9-0.6 3.2-1.3 5.8-0.6 2.7-1.4 4.5-0.4 1-1 2-0.6 0.9-1.4 1.5-0.8 0.7-1.8 1.1-1 0.4-2.3 0.4h-0.4q-1.8-0.1-3.4-0.7-1.5-0.7-2.8-1.8-1.4-1.1-2.5-2.5-1.1-1.5-2-3.1-0.9-1.7-1.5-3.5-0.7-1.8-1.1-3.6-0.4-1.8-0.6-3.6-0.2-1.7-0.1-3.2zm13.7 19.7h0.3q0.9 0 1.7-0.3 0.7-0.3 1.3-0.9 0.6-0.5 1-1.2 0.4-0.7 0.8-1.5 0.7-1.8 1.3-4.3 0.6-2.5 1.2-5.6 0.5-3 0.9-6.5 0.4-3.5 0.8-7.3 0.4-3.7 0.6-7.6 0.3-3.9 0.5-7.8-3.2 0.9-5.9 2.2-3.2 1.5-6 3.6-2.8 2.2-4.9 4.8-2.2 2.7-3.5 5.9-1.3 3.2-1.5 6.8-0.1 1.6 0.2 3.7 0.3 2 0.9 4.2 0.7 2.2 1.7 4.2 0.9 2.1 2.2 3.7 1.3 1.7 2.9 2.7 1.7 1.1 3.5 1.2zm76.3-23.2q0.1-1.6 0.6-3 0.5-1.5 1.3-2.8 0.9-1.3 2-2.4 1.1-1.2 2.4-2 2.1-1.3 4.6-2 2.5-0.7 5.2-0.7 1.3 0 2.5 0.2 1.3 0.2 2.4 0.6 0.7 0.3 1 0.8 0.3 0.5 0.2 1 0 0.5-0.3 0.9-0.4 0.3-0.9 0.3-0.5 0-1.1-0.3-1.1-0.7-2.5-1-1.3-0.3-2.7-0.3-1.9 0-3.7 0.5-1.7 0.5-3.2 1.5-1 0.7-1.9 1.7-0.9 1-1.5 2.1-0.6 1.1-1 2.3-0.3 1.2-0.3 2.5 0 0.9 0.2 1.6 0.3 0.6 0.8 1.1 0.5 0.4 1.2 0.5 0.6 0.2 1.3 0.2 0.7 0 1.4-0.1 0.7-0.1 1.4-0.3 0.7-0.3 1.3-0.5 0.7-0.3 1.2-0.6 1.6-1 2.9-2.5 1.3-1.5 2.2-3.2 0-0.1 0.1-0.3 0.1-0.3 0.3-0.5 0.1-0.3 0.2-0.6 0.1-0.3 0.2-0.5 0.3-0.6 0.7-0.8 0.5-0.3 0.9-0.3 0.4 0 0.7 0.1 0.3 0.1 0.5 0.4 0.2 0.3 0.3 0.6 0 0.4 0 0.9-0.1 0.3-0.2 0.6-0.1 0.3-0.1 0.6-0.1 0.3-0.2 0.6 0 0.3-0.1 0.4-0.1 0.5-0.2 1.2-0.2 0.7-0.3 1.6-0.1 0.8-0.2 1.6 0 0.9 0 1.8 0 1.1 0.1 2.1 0.2 1 0.6 1.7 0.4 0.8 1 1.2 0.7 0.5 1.7 0.5 1 0 2.1-0.4 1-0.3 2-1 0.9-0.6 1.8-1.5 0.9-0.8 1.7-1.8 0.8-1 1.5-2.1 0.8-1 1.3-2.1 0.7-1 1.2-1.9 0.5-1 0.8-1.7 0.2-0.3 0.4-0.5 0.3-0.1 0.5-0.1 0.2 0 0.4 0.1 0.3 0.2 0.4 0.4 0.1 0.3 0.1 0.6 0 0.3-0.2 0.7-0.3 0.5-0.6 1.1-0.4 0.6-0.8 1.3-0.4 0.7-0.7 1.3-0.4 0.6-0.7 1.1-1.1 1.7-2.3 3.3-1.2 1.5-2.7 2.7-1.5 1.3-3.2 2-1.8 0.7-3.8 0.7-1.7 0-2.8-0.6-1-0.7-1.7-1.8-0.6-1.1-0.9-2.4-0.2-1.4-0.2-2.8 0-1.2 0.1-2.2 0.1-1.1 0.3-2.1-0.9 1.4-2.2 2.6-1.3 1.1-2.9 2-1.5 0.8-3.2 1.2-1.7 0.4-3.3 0.4-1.2 0-2.1-0.3-1-0.3-1.7-1-0.7-0.7-1.2-1.7-0.3-1.1-0.3-2.5zm33.6-11.7q0-4.4 0.4-9.1 0.3-4.7 1-9.5 0.6-4.8 1.5-9.7 0.9-4.9 2-9.7 1.2-4.7 2.5-9.2 1.4-4.5 2.9-8.5 0.2-0.7 0.7-1.8 0.4-1 1-2.2 0.5-1.3 1.2-2.6 0.7-1.3 1.5-2.6 0.8-1.3 1.7-2.4 0.8-1.2 1.7-2 0.9-0.9 1.8-1.4 1-0.5 2-0.5 1 0 1.8 0.5 0.8 0.6 1.3 1.5 0.5 0.9 0.9 2.1 0.3 1.1 0.4 2.3 0.2 1.1 0.2 2.2 0.1 1.1 0.1 1.8 0 2.8-0.3 5.8-0.4 3.1-0.9 6.2-0.6 3.1-1.4 6.3-0.8 3.2-1.7 6.3-0.9 3-1.9 5.9-1 2.9-2 5.5-1.6 4.3-3.4 8.6-1.8 4.2-3.7 8.5-1.9 4.2-3.9 8.3-2 4.2-3.9 8.3 0.3 2.9 0.8 5.4 0.6 2.5 1.5 4.7 0.7 1.6 1.5 2.8 0.7 1.2 1.6 2 0.9 0.8 1.8 1.1 0.9 0.4 1.9 0.4 2 0 4.2-1.4 2.1-1.5 4.4-4 1.8-2 3.6-4.9 1.8-2.9 3.7-6.8 0.3-0.6 0.8-0.6 0.3 0 0.5 0.1 0.2 0.2 0.3 0.4 0.1 0.3 0.1 0.6 0 0.3-0.2 0.7-1.9 3.9-3.8 6.8-1.8 2.8-3.6 4.9-1.2 1.5-2.5 2.7-1.3 1.1-2.7 1.9-1.3 0.8-2.6 1.3-1.4 0.4-2.7 0.4-1.2 0-2.3-0.4-1.1-0.4-2.2-1.2-1.1-0.8-2.1-2-1-1.3-1.9-3-1-2-1.7-4.4-0.6-2.4-1.1-5-0.4-2.7-0.6-5.6-0.2-2.8-0.2-5.8zm22.8-44.3q0.3-1.5 0.7-3.5 0.4-1.9 0.7-4.1 0.3-2.3 0.5-4.6 0.2-2.3 0.2-4.4 0-0.5 0-1.3 0-0.8-0.1-1.7-0.1-0.9-0.3-1.8-0.2-0.9-0.6-1.7-0.3-0.7-0.8-1.2-0.5-0.5-1.2-0.5-0.8 0-1.6 0.6-0.7 0.5-1.5 1.4-0.8 1-1.5 2.2-0.7 1.2-1.4 2.5-0.6 1.3-1.2 2.7-0.6 1.3-1.1 2.5-0.4 1.2-0.8 2.2-0.4 0.9-0.5 1.5-2.2 6.2-3.9 12.9-1.7 6.6-2.9 13.4-1.2 6.8-1.9 13.7-0.6 6.8-0.6 13.5 0 1.4 0 2.8 0.1 1.3 0.2 2.7 2.9-5.9 5.7-12 2.9-6.1 5.5-12.3 2.6-6.3 4.8-12.7 2.1-6.4 3.6-12.8zm4.4 55.9q0-1.9 0.5-3.6 0.6-1.8 1.6-3.4 1-1.6 2.3-2.9 1.4-1.3 3-2.2 1.6-1 3.4-1.5 1.8-0.5 3.7-0.5 1.3 0 2.3 0.3 1 0.3 1.7 0.8 0.7 0.6 1 1.3 0.3 0.8 0.3 1.7 0 1.4-0.5 2.7-0.4 1.3-1.3 2.4-0.8 1.1-2 2-1.2 0.9-2.5 1.5-1.4 0.6-2.8 1-1.5 0.3-3 0.3-1.2 0-2.4-0.2-1.2-0.2-2.2-0.7-0.1 0.2-0.1 0.4 0 0.2 0 0.3 0 1.8 0.6 3 0.6 1.2 1.6 1.9 1 0.8 2.4 1.1 1.3 0.3 2.8 0.3 1.7 0 3.7-0.3 2-0.4 4.1-1 2.1-0.6 4.2-1.4 2.2-0.9 4.1-1.9 1.9-1.1 3.5-2.3 1.6-1.2 2.7-2.5 0.3-0.3 0.6-0.5 0.3-0.1 0.5-0.1 0.2 0 0.4 0.1 0.2 0.2 0.3 0.4 0 0.2 0 0.5-0.1 0.2-0.4 0.5-1.3 1.6-3.1 2.9-1.8 1.4-3.9 2.6-2 1.2-4.3 2.1-2.3 1-4.6 1.7-2.3 0.6-4.5 1-2.2 0.3-4.2 0.3-1.9 0-3.7-0.4-1.7-0.4-3-1.3-1.3-0.9-2.1-2.5-0.7-1.6-0.7-3.9zm3.6-4q1.2 1 2.7 1.5 1.5 0.5 3 0.5 1.8 0 3.3-0.7 1.5-0.6 2.6-1.7 1.2-1.1 1.8-2.5 0.7-1.4 0.7-2.9 0-0.5-0.2-1-0.1-0.5-0.5-0.8-0.3-0.4-0.9-0.6-0.6-0.2-1.4-0.2-1.9 0-3.6 0.7-1.8 0.7-3.3 1.8-1.4 1.1-2.5 2.7-1.1 1.5-1.7 3.2zm-283.4 57.7q0.3-2 1.1-3.9 0.7-2 1.7-3.9 2.9-5.4 7.1-9.7 4.2-4.3 9.3-7.2 2.1-1.1 4.3-2 2.2-0.8 4.5-1.4 2.3-0.6 4.7-0.9 2.4-0.3 4.8-0.3 3.8 0 7.3 0.7 3.6 0.8 6.7 2.2 3 1.4 5.6 3.6 2.5 2.1 4.3 4.9 1.8 2.8 2.8 6.2 1 3.5 1 7.5 0 4.7-1.2 8.8-1.2 4-3.3 7.3-2.2 3.4-5.1 6.1-3 2.7-6.5 4.9-3.5 2.1-7.5 3.8-3.9 1.6-8.1 2.8-4.1 1.1-8.2 1.9-4.2 0.7-8.1 1.1-0.1 1.7-0.2 3.4-0.1 1.6-0.2 3.3-0.4 7.6-0.7 15.2-0.4 7.5-0.9 15.1 0 0.8-0.4 1.2-0.4 0.3-0.9 0.3-0.5 0-1-0.3-0.4-0.4-0.4-1 0.5-7.6 0.9-15.2 0.4-7.7 0.8-15.5 0.1-1.6 0.2-3.2 0-1.5 0.1-3.1-1.6 0.1-3.1 0.2-1.6 0-3.1 0-0.9 0-1.5-0.3-0.5-0.2-0.8-0.6-0.3-0.4-0.3-0.8 0-0.5 0.2-0.9 0.3-0.4 0.7-0.6 0.5-0.3 1.2-0.3h0.1q2.3 0.1 4.7 0.1 0.5 0 1 0 0.6 0 1.1 0 0.6-11.4 1.1-22.7 0.5-11.4 0.8-22.3 0.1-0.4 0.2-0.7 0.2-0.4 0.4-0.6 0.3-0.2 0.6-0.3 0.3-0.1 0.6-0.1 0.3 0 0.7 0.1 0.3 0.2 0.6 0.4 0.2 0.2 0.4 0.6 0.1 0.3 0.1 0.8-0.9 11.1-1.6 22.3-0.7 11.2-1.3 22.4 3.8-0.2 7.6-0.8 3.9-0.5 7.7-1.5 3.9-0.9 7.5-2.3 3.6-1.4 6.9-3.3 3.2-2 5.9-4.4 2.7-2.5 4.7-5.6 2-3.1 3-6.9 1.1-3.7 1.1-8.2 0-3.7-0.8-6.8-0.8-3.1-2.3-5.7-1.5-2.6-3.7-4.6-2.1-2-4.8-3.4-2.7-1.4-5.9-2.1-3.1-0.8-6.6-0.8-4.6 0-8.9 1.2-4.4 1.1-8.1 3.3-2.4 1.4-4.6 3.2-2.2 1.8-4.1 3.8-1.8 2.1-3.4 4.4-1.6 2.4-2.8 4.9-0.8 1.7-1.4 3.4-0.6 1.8-0.9 3.5-0.2 1.1-0.7 1.6-0.5 0.4-1.1 0.4-0.4 0-0.8-0.2-0.3-0.2-0.6-0.5-0.2-0.4-0.3-0.9-0.1-0.5 0-1.1zm84-19.7q0.9-1.8 2-3.2 1.2-1.5 2.3-2.6 1.2-1 2.4-1.6 1.2-0.6 2.4-0.6 1 0 1.8 0.3 0.7 0.4 1.3 1 0.5 0.6 0.8 1.4 0.4 0.7 0.5 1.6 0.2 0.9 0.3 1.8 0.1 0.9 0.1 1.7 0 2.1-0.4 4.7-0.3 2.5-0.9 5.2-0.6 2.6-1.3 5.4-0.8 2.8-1.6 5.4-0.8 2.6-1.7 5.1-0.9 2.4-1.7 4.4-1.5 4-3.3 8-1.7 3.9-3.6 7.7-1.8 3.9-3.8 7.7-1.9 3.8-3.8 7.7 0.1 3.3 0.2 6.5 0.1 3.2 0.3 6.3 0.4-1.3 0.9-3.2 0.6-1.8 1.3-3.9 0.7-2.2 1.6-4.3 0.9-2.2 2-4.1 0.6-1.1 1.4-2.2 0.8-1 1.8-1.9 1-0.8 2.1-1.3 1.2-0.5 2.6-0.5 1.5 0 2.5 0.6 1.1 0.7 1.7 1.7 0.6 1.1 0.8 2.4 0.3 1.2 0.3 2.5 0 1-0.2 2.2-0.1 1.2-0.3 2.4-0.2 1.3-0.4 2.5-0.1 1.3-0.2 2.5 0 1.2 0.1 2.3 0.1 1.1 0.6 2 0.3 0.6 0.8 1.1 0.6 0.4 1.5 0.4 1 0 2-0.4 1.1-0.3 2-1 1-0.6 1.9-1.5 0.9-0.8 1.7-1.8 0.8-1 1.5-2.1 0.7-1 1.3-2.1 0.6-1 1.1-1.9 0.5-1 0.9-1.7 0.2-0.3 0.4-0.5 0.2-0.1 0.5-0.1 0.2 0 0.4 0.1 0.2 0.2 0.4 0.4 0.1 0.3 0.1 0.6 0 0.3-0.2 0.7-0.3 0.5-0.7 1.1-0.3 0.6-0.7 1.3-0.4 0.7-0.8 1.3-0.3 0.6-0.6 1.1-1.1 1.7-2.3 3.3-1.2 1.5-2.7 2.7-1.5 1.3-3.2 2-1.8 0.7-3.9 0.7-0.8 0-1.4-0.2-0.6-0.2-1.1-0.6-0.5-0.4-0.8-0.9-0.4-0.5-0.6-1.2-0.7-1.7-0.8-3.6-0.1-1.8 0-3.7 0.2-1.8 0.4-3.7 0.2-1.8 0.2-3.7 0-0.6-0.1-1.5-0.2-0.8-0.5-1.6-0.4-0.7-1-1.3-0.5-0.5-1.4-0.5-0.8 0-1.6 0.5-0.8 0.4-1.5 1-0.7 0.6-1.3 1.4-0.6 0.7-1 1.3-0.9 1.4-1.7 3-0.8 1.6-1.4 3.3-0.7 1.7-1.3 3.4-0.5 1.6-1 3.2-0.4 1.5-0.7 2.7-0.3 1.2-0.5 2-0.2 0.9-0.7 1.3-0.6 0.5-1.2 0.5-0.5 0-0.9-0.4-0.5-0.3-0.5-1-0.6-4.7-0.9-10-0.3-5.2-0.3-10.8 0-4.9 0.3-10 0.3-5.1 0.8-10.1 0.6-5 1.5-9.9 0.8-4.9 2.1-9.5 1.2-4.6 2.9-8.9 1.6-4.2 3.7-7.8zm4.9 29.2q0.5-1.4 1.1-3.2 0.6-1.7 1.3-3.6 0.6-2 1.2-4 0.6-2.1 1.2-4.2 0.2-0.8 0.4-1.8 0.3-1 0.5-2.2 0.3-1.1 0.6-2.4 0.2-1.3 0.4-2.6 0.2-1.4 0.3-2.7 0.2-1.3 0.2-2.5 0-0.4-0.1-1.1 0-0.6-0.1-1.2-0.1-0.7-0.3-1.3-0.2-0.7-0.5-1.1-0.3-0.5-0.8-0.8-0.5-0.4-1.1-0.4-1 0-2.1 0.8-1 0.8-2 2.1-1.1 1.2-2 2.8-1 1.6-1.8 3.1-0.8 1.6-1.4 2.9-0.6 1.4-0.9 2.3-2.1 5.3-3.5 11-1.4 5.8-2.2 11.8-0.9 6-1.2 12.2-0.3 6.1-0.3 12.2 0 0.5 0 1.1 0 0.5 0 1.1 1.7-3.6 3.4-7 1.7-3.5 3.4-7.1 1.7-3.5 3.3-7.1 1.6-3.5 3-7.1zm24.5 25.7q0.9-0.9 2-1.6 1.1-0.7 2.4-1.1 0.2 0 0.4 0 0.6 0 1.1 0.4 0.6-0.4 1.5-0.4 0.9 0 1.8 0.4 0.9 0.5 1.6 1.1 1.4 1.1 2 2.8 0.7 1.6 0.7 3.4 0 0.5-0.1 1.1-0.1 0.6-0.2 1.1 1.3 0.4 2.6 0.6 1.3 0.1 2.7 0.1 2.4 0 4.9-0.4 2.4-0.4 4.6-1.1 0.2-0.1 0.4-0.1 0.3 0 0.5 0.2 0.3 0.2 0.3 0.5 0 0.3-0.2 0.6-0.2 0.3-0.8 0.5-2.2 0.8-4.6 1.2-2.4 0.4-4.8 0.4-1.6 0-3.1-0.2-1.5-0.2-3-0.6-0.6 1.5-1.6 2.9-1 1.4-2.3 2.5-1.4 1-2.9 1.6-1.6 0.6-3.3 0.6-1.6 0-2.9-0.5-1.2-0.6-2-1.6-0.8-1-1.3-2.3-0.4-1.3-0.4-2.8 0-1.3 0.3-2.6 0.3-1.3 0.8-2.5 0.6-1.2 1.3-2.3 0.7-1.1 1.6-1.9zm3.3 14.9q1.3 0 2.5-0.6 1.2-0.6 2.3-1.5 1-1 1.8-2.2 0.8-1.1 1.2-2.3-1.1-0.5-2.4-1.2-1.2-0.7-2.1-1.6-1-1-1.7-2.2-0.6-1.1-0.6-2.5 0-0.1 0-0.2 0-0.1 0.1-0.2-1.3 0.5-2.3 1.5-1 0.9-1.7 2.1-0.7 1.2-1 2.6-0.4 1.3-0.4 2.6 0 1 0.3 2 0.2 1.1 0.7 1.9 0.5 0.8 1.3 1.3 0.8 0.5 2 0.5zm2.6-14.3q0 1.1 0.5 2 0.6 0.9 1.4 1.7 0.9 0.8 1.9 1.4 1 0.6 1.9 1 0.2-0.9 0.2-1.7 0-0.7-0.1-1.4-0.1-0.7-0.4-1.3-0.2-0.7-0.6-1.3-0.3-0.6-0.8-1.1-0.2-0.1-0.5-0.3-0.3-0.2-0.6-0.4-0.4-0.2-0.7-0.3-0.4-0.1-0.7-0.1-0.8 0-1.2 0.6-0.3 0.5-0.3 1.2zm13.2-19.5q3.6-0.4 6.8-0.9 3.2-0.5 6.2-1 0.1-0.6 0.6-2.1 0.4-1.5 1-3.5 0.6-2 1.3-4.3 0.8-2.4 1.7-4.7 0.8-2.4 1.8-4.5 0.9-2.2 1.9-3.9 0.9-1.7 1.9-2.7 0.9-1 1.8-1 0.6 0 0.9 0.4 0.4 0.3 0.6 0.8 0.3 0.5 0.4 1.3 0.1 0.7 0.1 1.6 0 1.2-0.2 2.8-0.2 1.5-0.5 3.2-0.3 1.7-0.7 3.5-0.4 1.9-0.9 3.8-0.5 1.9-1 3.8-0.5 1.9-1.1 3.8 4.9-1 8.9-1.9 4-1 7.4-1.9 0.2 0 0.4 0 0.2-0.1 0.3-0.1 0.6 0 0.9 0.3 0.2 0.2 0.2 0.5 0 0.2-0.2 0.5-0.3 0.3-0.9 0.4-3.8 0.9-8.1 1.9-4.3 1-9.4 2.1-2.3 7.5-5 15-2.7 7.4-6.1 14.4 0 2.2 0.3 4.4 0.3 2.2 0.9 4.3 0.4 1.4 0.9 2.8 0.6 1.3 1.3 2.3 0.8 1.1 1.7 1.7 1 0.6 2.2 0.6 2 0 4.2-1.4 2.1-1.5 4.4-4 1.8-2 3.6-4.9 1.8-2.9 3.7-6.8 0.3-0.6 0.8-0.6 0.3 0 0.5 0.1 0.2 0.2 0.3 0.4 0.1 0.3 0.1 0.6 0 0.3-0.2 0.7-1.9 3.9-3.8 6.8-1.8 2.8-3.6 4.9-1.2 1.5-2.5 2.7-1.3 1.1-2.7 1.9-1.3 0.8-2.6 1.3-1.4 0.4-2.7 0.4-1.5 0-2.7-0.5-1.2-0.6-2.2-1.5-1-0.9-1.7-2.1-0.8-1.3-1.3-2.7-0.6-1.4-0.9-2.9-0.4-1.5-0.7-3-0.2-1.5-0.3-2.9-0.1-1.4-0.1-2.5 0-2.6 0.4-5.8 0.3-3.2 0.9-6.8 0.6-3.5 1.4-7.3 0.8-3.7 1.8-7.4-2.8 0.6-5.8 1.2-2.9 0.7-6.1 1.3-0.2 0.1-0.4 0.1-0.2 0-0.3 0-0.8 0-1.3-0.4-0.4-0.4-0.4-0.9 0-0.6 0.5-1 0.5-0.5 1.4-0.7zm20.9-3.3q0.8-2.7 1.5-5.6 0.8-3 1.4-5.8 0.6-2.8 1-5.3 0.3-2.6 0.3-4.7 0-0.7-0.1-1.1 0-0.4-0.3-0.4-0.1 0-0.4 0.4-0.3 0.4-0.7 1.2-0.4 0.7-0.9 1.8-0.4 1.1-1 2.4-0.6 1.7-1.3 3.7-0.7 2-1.4 4.3-0.7 2.3-1.4 4.8-0.7 2.5-1.4 5.2 1.2-0.3 2.4-0.5 1.1-0.2 2.3-0.4zm-5.2 3q-0.8 2.9-1.5 6-0.6 3-1.2 5.9-0.6 2.9-1 5.7-0.4 2.8-0.7 5.2 2.7-5.8 4.9-11.8 2.2-5.9 4.1-12.1-2.3 0.5-4.6 1.1zm22.3 19.2q0.9-0.9 2-1.6 1.1-0.7 2.4-1.1 0.2 0 0.4 0 0.6 0 1.1 0.4 0.6-0.4 1.5-0.4 0.9 0 1.8 0.4 0.9 0.5 1.6 1.1 1.4 1.1 2 2.8 0.7 1.6 0.7 3.4 0 0.5-0.1 1.1-0.1 0.6-0.2 1.1 1.3 0.4 2.6 0.6 1.3 0.1 2.7 0.1 2.4 0 4.9-0.4 2.4-0.4 4.6-1.1 0.2-0.1 0.4-0.1 0.3 0 0.5 0.2 0.3 0.2 0.3 0.5 0 0.3-0.2 0.6-0.2 0.3-0.8 0.5-2.2 0.8-4.6 1.2-2.4 0.4-4.8 0.4-1.6 0-3.1-0.2-1.5-0.2-3-0.6-0.6 1.5-1.6 2.9-1 1.4-2.3 2.5-1.4 1-2.9 1.6-1.6 0.6-3.3 0.6-1.6 0-2.9-0.5-1.2-0.6-2-1.6-0.8-1-1.3-2.3-0.4-1.3-0.4-2.8 0-1.3 0.3-2.6 0.3-1.3 0.8-2.5 0.6-1.2 1.3-2.3 0.7-1.1 1.6-1.9zm3.3 14.9q1.3 0 2.5-0.6 1.2-0.6 2.3-1.5 1-1 1.8-2.2 0.8-1.1 1.2-2.3-1.1-0.5-2.4-1.2-1.2-0.7-2.1-1.6-1-1-1.7-2.2-0.6-1.1-0.6-2.5 0-0.1 0-0.2 0-0.1 0.1-0.2-1.3 0.5-2.3 1.5-1 0.9-1.7 2.1-0.7 1.2-1 2.6-0.4 1.3-0.4 2.6 0 1 0.3 2 0.2 1.1 0.7 1.9 0.5 0.8 1.3 1.3 0.8 0.5 2 0.5zm2.6-14.3q0 1.1 0.5 2 0.6 0.9 1.4 1.7 0.9 0.8 1.9 1.4 1 0.6 1.9 1 0.2-0.9 0.2-1.7 0-0.7-0.1-1.4-0.1-0.7-0.4-1.3-0.2-0.7-0.6-1.3-0.3-0.6-0.8-1.1-0.2-0.1-0.5-0.3-0.3-0.2-0.6-0.4-0.4-0.2-0.7-0.3-0.4-0.1-0.7-0.1-0.8 0-1.2 0.6-0.3 0.5-0.3 1.2z"/>
</svg>