<?xml version="1.0" encoding="utf-8"?>
<svg viewBox="281.735 169.014 16 16" xmlns="http://www.w3.org/2000/svg">
  <path d="M 289.735 169.014 C 287.564 169.014 287.291 169.024 286.438 169.062 C 285.585 169.102 285.004 169.236 284.495 169.434 C 283.961 169.635 283.477 169.95 283.078 170.357 C 282.671 170.757 282.356 171.24 282.155 171.774 C 281.957 172.282 281.822 172.864 281.783 173.714 C 281.745 174.569 281.735 174.841 281.735 177.015 C 281.735 179.187 281.745 179.459 281.783 180.312 C 281.823 181.164 281.957 181.745 282.155 182.254 C 282.36 182.78 282.633 183.226 283.078 183.671 C 283.522 184.116 283.968 184.39 284.494 184.594 C 285.004 184.792 285.584 184.927 286.436 184.966 C 287.29 185.004 287.562 185.014 289.735 185.014 C 291.908 185.014 292.179 185.004 293.033 184.966 C 293.884 184.926 294.467 184.792 294.976 184.594 C 295.509 184.393 295.992 184.078 296.392 183.671 C 296.837 183.226 297.11 182.78 297.315 182.254 C 297.512 181.745 297.647 181.164 297.687 180.312 C 297.725 179.459 297.735 179.187 297.735 177.014 C 297.735 174.841 297.725 174.569 297.687 173.715 C 297.647 172.864 297.512 172.282 297.315 171.774 C 297.113 171.24 296.799 170.757 296.392 170.357 C 295.992 169.95 295.509 169.635 294.975 169.434 C 294.465 169.236 293.883 169.101 293.032 169.062 C 292.178 169.024 291.907 169.014 289.733 169.014 L 289.736 169.014 L 289.735 169.014 Z M 289.018 170.456 L 289.736 170.456 C 291.872 170.456 292.125 170.463 292.968 170.502 C 293.748 170.537 294.172 170.668 294.454 170.777 C 294.827 170.922 295.094 171.096 295.374 171.376 C 295.654 171.656 295.827 171.922 295.972 172.296 C 296.082 172.577 296.212 173.001 296.247 173.781 C 296.286 174.624 296.294 174.877 296.294 177.012 C 296.294 179.147 296.286 179.401 296.247 180.244 C 296.212 181.024 296.081 181.447 295.972 181.729 C 295.843 182.076 295.639 182.39 295.373 182.648 C 295.093 182.928 294.827 183.101 294.453 183.246 C 294.173 183.356 293.749 183.486 292.968 183.522 C 292.125 183.56 291.872 183.569 289.736 183.569 C 287.6 183.569 287.346 183.56 286.503 183.522 C 285.723 183.486 285.3 183.356 285.018 183.246 C 284.67 183.118 284.356 182.914 284.098 182.648 C 283.831 182.39 283.626 182.076 283.498 181.728 C 283.389 181.447 283.258 181.023 283.223 180.243 C 283.185 179.4 283.177 179.147 283.177 177.01 C 283.177 174.874 283.185 174.622 283.223 173.779 C 283.259 172.999 283.389 172.575 283.499 172.293 C 283.644 171.92 283.818 171.653 284.098 171.373 C 284.378 171.093 284.644 170.92 285.018 170.775 C 285.3 170.665 285.723 170.535 286.503 170.499 C 287.241 170.465 287.527 170.455 289.018 170.454 L 289.018 170.456 L 289.018 170.456 Z M 294.006 171.784 C 293.267 171.784 292.805 172.584 293.174 173.224 C 293.346 173.521 293.663 173.704 294.006 173.704 C 294.745 173.704 295.206 172.904 294.837 172.264 C 294.665 171.967 294.349 171.784 294.006 171.784 L 294.006 171.784 Z M 289.736 172.906 C 286.573 172.857 284.543 176.25 286.081 179.013 C 286.818 180.336 288.222 181.147 289.736 181.123 C 292.898 181.074 294.822 177.619 293.197 174.905 C 292.467 173.684 291.158 172.928 289.736 172.906 L 289.736 172.906 Z M 289.736 174.347 C 291.789 174.347 293.072 176.569 292.045 178.347 C 291.569 179.173 290.688 179.681 289.736 179.681 C 287.683 179.681 286.399 177.458 287.426 175.68 C 287.902 174.855 288.783 174.347 289.736 174.347" style="fill: rgb(251, 251, 251);"/>
</svg>