<?xml version="1.0" encoding="utf-8"?>
<svg viewBox="294.3125 193.521 14.0005 16.008" xmlns="http://www.w3.org/2000/svg">
  <path d="M 302.313 193.521 L 304.293 193.521 C 304.437 194.236 304.833 195.138 305.528 196.033 C 306.208 196.91 307.11 197.521 308.313 197.521 L 308.313 199.521 C 306.56 199.521 305.243 198.707 304.313 197.692 L 304.313 204.521 C 304.313 208.37 300.146 210.776 296.813 208.852 C 293.479 206.927 293.479 202.116 296.813 200.191 C 297.573 199.753 298.435 199.521 299.313 199.521 L 299.313 201.521 C 297.003 201.521 295.56 204.021 296.715 206.021 C 297.869 208.021 300.756 208.021 301.911 206.021 C 302.174 205.565 302.313 205.048 302.313 204.521 L 302.313 193.521 Z" style="fill: rgb(251, 251, 251);" transform="matrix(0.9999999999999999, 0, 0, 0.9999999999999999, 5.684341886080802e-14, 2.842170943040401e-14)"/>
</svg>